# AST/ASF file generated using VICON BodyLanguage
# -----------------------------------------------
:version 1.10
:name VICON
:units
  mass 1.0
  length 0.45
  angle deg
:documentation
   .ast/.asf automatically generated from VICON data using
   VICON BodyBuilder and BodyLanguage model FoxedUp or BRILLIANT.MOD
:root
   order TX TY TZ RX RY RZ
   axis XYZ
   position 0 0 0  
   orientation 0 0 0 
:bonedata
  begin
     id 1 
     name lhipjoint
     direction 0.78388 -0.462562 0.414208 
     length 3.01181 
     axis 0 0 0  XYZ
  end
  begin
     id 2 
     name lfemur
     direction 0.34202 -0.939693 0  
     length 6.04673  
     axis 0 0 20  XYZ
    dof rx ry rz
    limits (-160.0 20.0)
           (-70.0 70.0)
           (-60.0 70.0)
  end
  begin
     id 3 
     name ltibia
     direction 0.34202 -0.939693 0   
     length 7.211   
     axis 0 0 20   XYZ
    dof rx
    limits (-10.0 170.0)
  end
  begin
     id 4 
     name lfoot
     direction 0.121887 -0.334882 0.934344   
     length 2.13567   
     axis -90 7.62852e-016 20   XYZ
    dof rx rz
    limits (-45.0 90.0)
           (-70.0 20.0)
  end
  begin
     id 5 
     name ltoes
     direction 1.53555e-011 -4.2179e-011 1   
     length 1.05957   
     axis -90 7.62852e-016 20   XYZ
    dof rx
    limits (-90.0 20.0)
  end
  begin
     id 6 
     name rhipjoint
     direction -0.769387 -0.475875 0.426129   
     length 2.92756  
     axis 0 0 0  XYZ 
  end
  begin
     id 7 
     name rfemur
     direction -0.34202 -0.939693 0   
     length 6.35468   
     axis 0 0 -20   XYZ
    dof rx ry rz
    limits (-160.0 20.0)
           (-70.0 70.0)
           (-70.0 60.0)
  end
  begin
     id 8 
     name rtibia
     direction -0.34202 -0.939693 0   
     length 7.37886   
     axis 0 0 -20   XYZ
    dof rx
    limits (-10.0 170.0)
 end
 begin
     id 9 
     name rfoot
     direction -0.101763 -0.279592 0.954711   
     length 2.21478  
     axis -90 -7.62852e-016 -20   XYZ
    dof rx rz
    limits (-45.0 90.0)
           (-20.0 70.0)
  end
  begin
     id 10 
     name rtoes
     direction -1.53494e-011 -4.21851e-011 1   
     length 1.10506   
     axis -90 -7.62852e-016 -20   XYZ
    dof rx
    limits (-90.0 20.0)
  end
  begin
     id 11 
     name lowerback
     direction 0.00747405 0.999267 0.0375481   
     length 2.13259   
     axis 0 0 0   XYZ
    dof rx ry rz
    limits (-20.0 45.0)
           (-30.0 30.0)
           (-30.0 30.0)
  end
  begin
     id 12 
     name upperback
     direction 0.00661626 0.996177 0.0871029   
     length 2.10528   
     axis 0 0 0   XYZ
    dof rx ry rz
    limits (-20.0 45.0)
           (-30.0 30.0)
           (-30.0 30.0)
  end
  begin
     id 13 
     name thorax
     direction 0.00320659 0.997679 0.0680167   
     length 2.11338   
     axis 0 0 0   XYZ
    dof rx ry rz
    limits (-20.0 45.0)
           (-30.0 30.0)
           (-30.0 30.0)
  end
  begin
     id 14 
     name lowerneck
     direction 0.0374841 0.973033 0.227602   
     length 1.42765   
     axis 0 0 0   XYZ
    dof rx ry rz
    limits (-20.0 45.0)
           (-30.0 30.0)
           (-30.0 30.0)
  end
  begin
     id 15 
     name upperneck
     direction 0.00481585 0.989155 -0.146795   
     length 1.47593   
     axis 0 0 0   XYZ
    dof rx ry rz
    limits (-20.0 45.0)
           (-30.0 30.0)
           (-30.0 30.0)
  end
  begin
     id 16
     name head
     direction -0.00292522 0.997206 -0.0746423  
     length 1.48116  
     axis 0 0 0   XYZ
    dof rx ry rz
    limits (-20.0 45.0)
           (-30.0 30.0)
           (-30.0 30.0)
  end
  begin
     id 17 
     name lclavicle
     direction 0.951444 0.305606 0.0368784  
     length 3.01855  
     axis 0 0 0   XYZ
    dof ry rz
    limits (-20.0 10.0)
           (0.0 20.0)
  end
  begin
     id 18 
     name lhumerus
     direction 1 -4.48977e-011 2.61664e-027   
     length 5.52731   
     axis 180 -30 -90   XYZ
    dof rx ry rz
    limits (-60.0 90.0)
           (-90.0 90.0)
           (-90.0 90.0)
  end
  begin
     id 19
     name lradius
     direction 1 -4.48944e-011 8.22157e-027   
     length 3.11059   
     axis 180 -30 -90   XYZ
    dof rx
    limits (-10.0 170.0)
  end
  begin
     id 20
     name lwrist
     direction 1 -4.48976e-011 1.5779e-026   
     length 1.5553   
     axis -1.15221e-014 90 90   XYZ
    dof ry
    limits (-180.0 0.0)
 end
  begin
     id 21 
     name lhand
     direction 1 -4.49025e-011 3.1558e-026   
     length 0.419626   
     axis -2.01367e-014 90 90   XYZ
    dof rx rz
    limits (-90.0 90.0)
           (-45.0 45.0)
  end
  begin
     id 22 
     name lfingers
     direction 1 -4.4904e-011 6.31161e-026   
     length 0.338313   
     axis -4.02734e-014 90 90   XYZ
    dof rx
    limits (0.0 90.0)
  end
  begin
     id 23
     name lthumb
     direction 0.707107 -6.35004e-011 0.707107   
     length 0.485752   
     axis -90 45 2.85299e-015   XYZ
    dof rx rz
    limits (-45.0 45.0)
           (-45.0 45.0)
  end
  begin
     id 24 
     name rclavicle
     direction -0.968876 0.223791 0.105816   
     length 3.04177  
     axis 0 0 0   XYZ 
    dof ry rz
    limits (-10.0 20.0)
           (-20.0 0.0)
  end
  begin
     id 25 
     name rhumerus
     direction -1 -4.48962e-011 -1.01384e-027  
     length 5.25396   
     axis 180 30 90   XYZ
    dof rx ry rz
    limits (-90.0 60.0)
           (-90.0 90.0)
           (-90.0 90.0)
  end
  begin
     id 26 
     name rradius
     direction -1 -4.48955e-011 8.88542e-027   
     length 3.10567   
     axis 180 30 90   XYZ
    dof rx
    limits (-10.0 170.0)
  end
  begin
     id 27 
     name rwrist
     direction -1 -4.48994e-011 1.5779e-026   
     length 1.55283   
     axis -1.15221e-014 -90 -90   XYZ
    dof ry
    limits (-180.0 0.0)
  end
  begin
     id 28
     name rhand
     direction -1 -4.48891e-011 3.1558e-026   
     length 0.498676   
     axis -2.01367e-014 -90 -90   XYZ
    dof rx rz
    limits (-90.0 90.0)
           (-45.0 45.0)
  end
  begin
     id 29
     name rfingers
     direction -1 -4.48972e-011 6.31161e-026   
     length 0.402045   
     axis -4.02734e-014 -90 -90   XYZ
    dof rx
    limits (0.0 90.0)
  end
  begin
     id 30
     name rthumb
     direction -0.707107 -6.34849e-011 0.707107   
     length 0.577259   
     axis -90 -45 -2.85299e-015   XYZ
    dof rx rz
    limits (-45.0 45.0)
           (-45.0 45.0)
  end
:hierarchy
  begin
    root lhipjoint rhipjoint lowerback
    lhipjoint lfemur
    lfemur ltibia
    ltibia lfoot
    lfoot ltoes
    rhipjoint rfemur
    rfemur rtibia
    rtibia rfoot
    rfoot rtoes
    lowerback upperback
    upperback thorax
    thorax lowerneck lclavicle rclavicle
    lowerneck upperneck
    upperneck head
    lclavicle lhumerus
    lhumerus lradius
    lradius lwrist
    lwrist lhand lthumb
    lhand lfingers
    rclavicle rhumerus
    rhumerus rradius
    rradius rwrist
    rwrist rhand rthumb
    rhand rfingers
  end

#!OML:ASF H:\Pregnant\Project 1\Capture day 1\Session 1\femalepreg.ASF
:FULLY-SPECIFIED
:DEGREES
324
root 10.3391 15.5836 8.0075 20.8304 6.45255 2.29094
lowerback -20.0379 -2.70972 -2.78318
upperback -6.4826 -3.01086 0.438694
thorax 4.34 -1.46429 1.34542
lowerneck -22.0826 -0.125303 0.383141
upperneck 19.1524 -0.59933 1.2416
head 9.7152 -0.0983269 0.285322
rclavicle 7.63457e-015 1.27222e-014
rhumerus -39.5788 16.0523 -86.6015
rradius 26.4989
rwrist -2.39011
rhand -13.4934 -16.6068
rfingers 7.12502
rthumb 12.6175 -46.2057
lclavicle 7.63457e-015 1.27222e-014
lhumerus -35.9491 -20.796 94.0403
lradius 29.6248
lwrist 41.7682
lhand -23.3325 1.83494
lfingers 7.12502
lthumb 3.12198 31.7918
rfemur -49.6008 18.1498 11.9267
rtibia 45.2446
rfoot -11.5543 -3.88531
rtoes -14.3603
lfemur -10.7879 -18.3275 -22.0497
ltibia 13.1511
lfoot -16.196 -7.78786
ltoes -28.6396
325
root 10.3357 15.5805 8.01736 20.7415 6.32235 2.27761
lowerback -20.0699 -2.70641 -2.82758
upperback -6.43609 -2.99688 0.438862
thorax 4.40792 -1.45849 1.37167
lowerneck -22.1441 -0.110479 0.386884
upperneck 19.3192 -0.600113 1.31209
head 9.78576 -0.0885582 0.309754
rclavicle 1.27688e-014 4.47266e-015
rhumerus -38.8767 15.4322 -86.3346
rradius 26.1337
rwrist -2.04096
rhand -14.0398 -16.7856
rfingers 7.12502
rthumb 12.0908 -46.4163
lclavicle 1.27688e-014 4.47266e-015
lhumerus -35.8532 -21.7996 94.3769
lradius 29.8401
lwrist 41.4844
lhand -23.2288 1.50867
lfingers 7.12502
lthumb 3.22212 31.4641
rfemur -49.5069 18.2512 11.9759
rtibia 45.2625
rfoot -11.5914 -3.84778
rtoes -14.3229
lfemur -10.6383 -18.3766 -22.0726
ltibia 13.1602
lfoot -16.2039 -7.6939
ltoes -28.7802
326
root 10.333 15.5775 8.02601 20.6586 6.18011 2.25728
lowerback -20.1147 -2.69067 -2.86518
upperback -6.39065 -2.96723 0.43501
thorax 4.48003 -1.44506 1.39314
lowerneck -22.1841 -0.104604 0.39137
upperneck 19.4739 -0.612383 1.37842
head 9.84843 -0.0846283 0.330968
rclavicle 3.0675e-014 5.76476e-015
rhumerus -38.1713 14.7716 -86.0762
rradius 25.7742
rwrist -1.70855
rhand -14.5452 -16.9881
rfingers 7.12502
rthumb 11.6034 -46.6469
lclavicle 3.0675e-014 5.76476e-015
lhumerus -35.735 -22.7624 94.6774
lradius 30.0575
lwrist 41.2709
lhand -23.1807 1.27883
lfingers 7.12502
lthumb 3.26862 31.2335
rfemur -49.4242 18.356 12.0231
rtibia 45.2718
rfoot -11.6213 -3.79809
rtoes -14.2841
lfemur -10.508 -18.4216 -22.0934
ltibia 13.1866
lfoot -16.2149 -7.58503
ltoes -28.9292
327
root 10.3311 15.5748 8.0333 20.5825 6.03005 2.22948
lowerback -20.1689 -2.665 -2.89802
upperback -6.35163 -2.92505 0.429727
thorax 4.54923 -1.42538 1.41329
lowerneck -22.1881 -0.105561 0.3962
upperneck 19.6103 -0.633118 1.44194
head 9.89826 -0.0851252 0.349867
rclavicle 2.68949e-014 1.39149e-015
rhumerus -37.4786 14.0762 -85.8296
rradius 25.4317
rwrist -1.39246
rhand -14.9962 -17.2123
rfingers 7.12502
rthumb 11.1684 -46.895
lclavicle 2.68949e-014 1.39149e-015
lhumerus -35.6041 -23.6727 94.9428
lradius 30.2755
lwrist 41.1086
lhand -23.1662 1.22144
lfingers 7.12502
lthumb 3.28263 31.1759
rfemur -49.3527 18.4635 12.0688
rtibia 45.2715
rfoot -11.6432 -3.74167
rtoes -14.2466
lfemur -10.4002 -18.4615 -22.1097
ltibia 13.2331
lfoot -16.2311 -7.46533
ltoes -29.0721
328
root 10.3299 15.5722 8.03931 20.5102 5.87403 2.19464
lowerback -20.2267 -2.63344 -2.9284
upperback -6.3176 -2.87575 0.428348
thorax 4.61459 -1.40214 1.43803
lowerneck -22.168 -0.111829 0.396353
upperneck 19.7335 -0.657772 1.49899
head 9.93913 -0.0887256 0.366654
rclavicle -1.05729e-014 -1.40143e-014
rhumerus -36.8034 13.3777 -85.6016
rradius 25.1157
rwrist -1.10522
rhand -15.4317 -17.455
rfingers 7.12502
rthumb 10.7483 -47.16
lclavicle -1.05729e-014 -1.40143e-014
lhumerus -35.4611 -24.5181 95.1749
lradius 30.5015
lwrist 40.9841
lhand -23.1631 1.3965
lfingers 7.12502
lthumb 3.2856 31.3509
rfemur -49.2869 18.5699 12.116
rtibia 45.261
rfoot -11.6605 -3.67979
rtoes -14.2224
lfemur -10.3107 -18.4967 -22.1233
ltibia 13.2997
lfoot -16.2526 -7.33097
ltoes -29.2129
329
root 10.3293 15.5698 8.04405 20.4417 5.71484 2.15195
lowerback -20.2836 -2.59649 -2.9536
upperback -6.29621 -2.82057 0.428684
thorax 4.66549 -1.37576 1.46355
lowerneck -22.105 -0.119611 0.400637
upperneck 19.8422 -0.683335 1.54781
head 9.96711 -0.0936924 0.379664
rclavicle 8.6316e-015 8.94531e-016
rhumerus -36.1691 12.6958 -85.4102
rradius 24.8401
rwrist -0.86507
rhand -15.8553 -17.7179
rfingers 7.12502
rthumb 10.3398 -47.4437
lclavicle 8.6316e-015 8.94531e-016
lhumerus -35.3299 -25.2943 95.3773
lradius 30.7423
lwrist 40.8993
lhand -23.1778 1.79025
lfingers 7.12502
lthumb 3.27144 31.7449
rfemur -49.2251 18.6738 12.1667
rtibia 45.2389
rfoot -11.6723 -3.61224
rtoes -14.219
lfemur -10.2378 -18.5289 -22.1326
ltibia 13.3838
lfoot -16.2779 -7.18232
ltoes -29.3352
